<?xml version="1.0" encoding="UTF-8"?>
<svg id="Layer_1" data-name="Layer 1" xmlns="http://www.w3.org/2000/svg" viewBox="0 0 1920 1920">
  <path d="M642.08,1135.33c14.54-7.4,21.42-17.6,21.42-40.81v-180.07c-7.14,9.44-14.54,19.13-22.19,28.57-26.78,34.18-50.5,69.88-50.5,105.08,0,8.16,1.28,16.32,4.08,24.48,8.16,22.44,15.05,53.05,38.51,62.74h-44.63c-41.83,0-77.28-25-91.56-64.27l-71.67-199.45v222.4c0,23.21,6.63,33.67,21.42,41.06l-67.84.26c14.54-7.4,21.17-17.6,21.17-40.81v-279.54c0-7.91-.76-14.28-2.29-19.64l-1.79-4.85c-3.32-7.65-8.93-13.01-17.09-17.09l67.84.25c-.25,0-.51,0-.77.26,26.27,2.3,47.95,18.87,57.13,44.12l71.92,199.7c10.71-39.79,58.66-89.78,83.91-126.5,13.52-19.64,22.44-41.06,22.44-61.21,0-21.93-10.97-42.34-39.53-56.37h132.63c-14.54,7.14-21.17,17.34-21.17,40.55v280.3c0,23.21,6.63,33.41,21.17,40.81h-132.63Z"/>
  <path d="M788.99,1179.97c3.06.25,6.38.25,9.69.25,35.71,0,85.95-13.52,118.6-39.28l-.51-1.28-103.81-182.11c-6.63-11.99-17.09-24.23-31.37-26.78l90.54-43.1,86.72,159.15,53.31-103.55c6.63-11.73,11.99-22.19,11.99-32.14,0-8.16-3.83-15.81-13.77-23.46h54.84c-5.61,13.52-19.89,36.47-33.41,62.74l-90.29,173.94c-2.29,5.87-1.53,3.06-5.1,9.69l-35.96,69.12c-10.46,20.15-29.33,31.12-49.22,31.12-24.74,0-50.5-17.09-62.23-54.33Z"/>
  <path d="M1104.74,1052.19v-133.39c0-23.46-4.08-30.61-22.19-41.06l105.59-84.17v78.56h65.29l.25,14.28h-65.55v178.03c0,26.02,8.16,38.77,23.21,38.77,8.16,0,18.36-3.83,30.35-10.97-11.99,28.82-38.26,43.36-64.78,43.36-35.96,0-72.18-27.04-72.18-83.4Z"/>
  <path d="M1425.34,1088.15v-106.36c0-45.65-18.62-67.84-45.91-67.84-5.36,0-10.97.77-16.83,2.55v171.14c0,36.22-32.9,47.95-65.29,47.95-12.24,0-24.74-1.53-34.94-4.34,11.99-3.57,16.83-18.62,16.83-32.14v-241.53c0-23.72-3.83-30.61-22.19-41.32l105.59-43.1v134.16c20.4-13.77,41.32-19.89,60.96-19.89,46.93,0,85.44,35.45,85.44,85.19v126.76c0,13.52,4.59,28.31,16.58,31.88-10.46,2.81-22.7,4.34-34.94,4.34-32.39,0-65.29-11.48-65.29-47.44Z"/>
</svg>